<?xml version="1.0"?>
<svg xmlns="http://www.w3.org/2000/svg" xmlns:xlink="http://www.w3.org/1999/xlink" version="1.1" id="Layer_1" x="0px" y="0px" viewBox="0 0 512 512" style="enable-background:new 0 0 512 512;" xml:space="preserve" width="512px" height="512px"><g transform="matrix(-1 0 0 1 512 0)"><path style="fill:#FFFFFF;" d="M136.533,341.333c0-12.621-9.276-23.108-21.333-25.165c-12.058,2.057-21.333,12.544-21.333,25.165  c0,12.621,9.276,23.108,21.333,25.165C127.258,364.442,136.533,353.954,136.533,341.333z" data-original="#FFFFFF"/><path style="fill:#F4F4F4;" d="M119.467,315.733c-1.459,0-2.867,0.196-4.267,0.435c12.058,2.057,21.333,12.544,21.333,25.165  c0,12.621-9.276,23.108-21.333,25.165c1.399,0.239,2.807,0.435,4.267,0.435c14.08,0,25.6-11.52,25.6-25.6  C145.067,327.253,133.547,315.733,119.467,315.733z" data-original="#F4F4F4"/><path style="fill:#FFFFFF;" d="M409.6,341.333c0-12.621-9.276-23.108-21.333-25.165c-12.058,2.057-21.333,12.544-21.333,25.165  c0,12.621,9.276,23.108,21.333,25.165C400.324,364.442,409.6,353.954,409.6,341.333z" data-original="#FFFFFF"/><g>
	<path style="fill:#F4F4F4;" d="M392.533,315.733c-1.459,0-2.867,0.196-4.267,0.435c12.058,2.057,21.333,12.544,21.333,25.165   c0,12.621-9.276,23.108-21.333,25.165c1.399,0.239,2.807,0.435,4.267,0.435c14.08,0,25.6-11.52,25.6-25.6   C418.133,327.253,406.613,315.733,392.533,315.733z" data-original="#F4F4F4"/>
	<polygon style="fill:#F4F4F4;" points="187.733,145.067 187.733,213.333 67.584,213.333 79.531,196.267 170.667,196.267    170.667,145.067  " data-original="#F4F4F4"/>
</g><g>
	<path style="fill:#2979FF;" d="M467.337,324.267c0.631,2.799,1.169,5.632,1.485,8.533   C468.506,329.899,467.977,327.066,467.337,324.267L467.337,324.267z" data-original="#2979FF"/>
	<path style="fill:#2979FF;" d="M194.27,324.267c0.631,2.799,1.169,5.632,1.485,8.533   C195.439,329.899,194.91,327.066,194.27,324.267L194.27,324.267z" data-original="#2979FF"/>
</g><path d="M392.533,298.667c-23.552,0-42.667,19.115-42.667,42.667S368.981,384,392.533,384c23.552,0,42.667-19.115,42.667-42.667  S416.085,298.667,392.533,298.667z M392.533,366.933c-14.08,0-25.6-11.52-25.6-25.6c0-14.08,11.52-25.6,25.6-25.6  s25.6,11.52,25.6,25.6C418.133,355.413,406.613,366.933,392.533,366.933z" data-original="#000000"/><polygon style="fill:#FFFFFF;" points="170.667,145.067 170.667,196.267 79.531,196.267 115.371,145.067 " data-original="#FFFFFF"/><path d="M119.467,298.667c-23.552,0-42.667,19.115-42.667,42.667S95.915,384,119.467,384s42.667-19.115,42.667-42.667  S143.019,298.667,119.467,298.667z M119.467,366.933c-14.08,0-25.6-11.52-25.6-25.6c0-14.08,11.52-25.6,25.6-25.6  s25.6,11.52,25.6,25.6C145.067,355.413,133.547,366.933,119.467,366.933z" data-original="#000000"/><path style="fill:#0091EA" d="M494.933,302.165l-6.059-5.973c-1.536-1.621-2.475-3.755-2.475-6.059v-17.067h-8.533  c-4.693,0-8.533-3.84-8.533-8.533s3.84-8.533,8.533-8.533h8.533V145.067H204.8v76.8c0,4.693-3.84,8.533-8.533,8.533H54.272  c-8.789,7.509-15.787,15.445-20.736,25.6h9.131c4.693,0,8.533,3.84,8.533,8.533s-3.84,8.533-8.533,8.533H27.819  c-1.109,5.291-1.963,11.008-2.219,17.493c-0.085,2.048-1.024,4.096-2.475,5.632l-6.059,5.973v10.069l3.584,3.499H33.28  c0,0,8.277,0,13.824,0c10.581-29.781,39.083-51.2,72.363-51.2s61.781,21.419,72.363,51.2h121.344c0,0,3.755,0,6.997,0  c10.581-29.781,39.083-51.2,72.363-51.2s61.781,21.419,72.363,51.2h26.453l3.584-3.499V302.165z" data-original="#0091EA" class="active-path" data-old_color="#0091EA"/><g>
	<path style="fill:#2979FF;" d="M20.651,315.733l2.475,2.475c1.536,1.621,2.475,3.755,2.475,6.059v8.533h17.579   c0.597-5.888,1.963-11.691,3.925-17.067c-5.547,0-13.824,0-13.824,0H20.651z" data-original="#2979FF"/>
	<path style="fill:#2979FF;" d="M191.829,315.733c1.024,2.816,1.877,5.888,2.56,8.96c0.171,0.768,0.341,1.451,0.427,2.219   c0.427,1.963,0.768,3.925,0.939,5.888h120.491c0.597-5.888,1.963-11.691,3.925-17.067c-3.243,0-6.997,0-6.997,0H191.829z" data-original="#2979FF"/>
	<path style="fill:#2979FF;" d="M467.456,324.693c0.171,0.768,0.341,1.451,0.427,2.219c0.427,1.963,0.768,3.925,0.939,5.888H486.4   v-8.533c0-2.304,0.939-4.437,2.475-6.059l2.475-2.475h-26.453C465.92,318.549,466.773,321.621,467.456,324.693z" data-original="#2979FF"/>
</g><path d="M509.525,292.608l-6.059-5.973V136.533c0-4.693-3.84-8.533-8.533-8.533h-384c-2.816,0-5.376,1.365-6.997,3.669  l-59.051,84.309c-17.408,14.507-33.536,33.195-36.181,70.4l-6.229,6.229C0.939,294.229,0,296.363,0,298.667v17.067  c0,2.304,0.939,4.437,2.475,6.059l6.059,5.973v13.568c0,4.693,3.84,8.533,8.533,8.533H51.2c4.693,0,8.533-3.84,8.533-8.533  c0-32.939,26.795-59.733,59.733-59.733s59.733,26.795,59.733,59.733c0,4.693,3.84,8.533,8.533,8.533h136.533  c4.693,0,8.533-3.84,8.533-8.533c0-32.939,26.795-59.733,59.733-59.733s59.733,26.795,59.733,59.733c0,4.693,3.84,8.533,8.533,8.533  h34.133c4.693,0,8.533-3.84,8.533-8.533v-13.568l6.059-5.973c1.536-1.621,2.475-3.755,2.475-6.059v-17.067  C512,296.363,511.061,294.229,509.525,292.608z M79.531,196.267l35.84-51.2h72.363v68.267H67.584L79.531,196.267z M494.933,312.235  l-3.584,3.499l-2.475,2.475c-1.536,1.621-2.475,3.755-2.475,6.059v8.533h-17.579c-0.171-1.963-0.512-3.925-0.939-5.888  c-0.085-0.768-0.256-1.451-0.427-2.219c-0.683-3.072-1.536-6.144-2.56-8.96c-10.581-29.781-39.083-51.2-72.363-51.2  s-61.781,21.419-72.363,51.2c-1.963,5.376-3.328,11.179-3.925,17.067H195.755c-0.171-1.963-0.512-3.925-0.939-5.888  c-0.085-0.768-0.256-1.451-0.427-2.219c-0.683-3.072-1.536-6.144-2.56-8.96c-10.581-29.781-39.083-51.2-72.363-51.2  s-61.781,21.419-72.363,51.2c-1.963,5.376-3.328,11.179-3.925,17.067H25.6v-8.533c0-2.304-0.939-4.437-2.475-6.059l-2.475-2.475  l-3.584-3.499v-10.069l6.059-5.973c1.451-1.536,2.389-3.584,2.475-5.632c0.256-6.485,1.109-12.203,2.219-17.493h14.848  c4.693,0,8.533-3.84,8.533-8.533S47.36,256,42.667,256h-9.131c4.949-10.155,11.947-18.091,20.736-25.6h141.995  c4.693,0,8.533-3.84,8.533-8.533v-76.8h281.6V256h-8.533c-4.693,0-8.533,3.84-8.533,8.533s3.84,8.533,8.533,8.533h8.533v17.067  c0,2.304,0.939,4.437,2.475,6.059l6.059,5.973V312.235z" data-original="#000000"/></g> </svg>
