<?xml version="1.0"?>
<svg xmlns="http://www.w3.org/2000/svg" xmlns:xlink="http://www.w3.org/1999/xlink" version="1.1" id="Layer_1" x="0px" y="0px" viewBox="0 0 512 512" style="enable-background:new 0 0 512 512;" xml:space="preserve" width="512px" height="512px" class=""><g transform="matrix(-1 0 0 1 512 0)"><path d="M401.067,287.834c-23.552,0-42.667,19.115-42.667,42.667s19.115,42.667,42.667,42.667c23.552,0,42.667-19.115,42.667-42.667  S424.619,287.834,401.067,287.834z M401.067,356.1c-14.08,0-25.6-11.52-25.6-25.6c0-14.08,11.52-25.6,25.6-25.6  s25.6,11.52,25.6,25.6C426.667,344.58,415.147,356.1,401.067,356.1z" data-original="#000000" class=""/><circle style="fill:#FFFFFF;" cx="401.067" cy="330.5" r="25.6" data-original="#FFFFFF" class=""/><path d="M110.933,287.834c-23.552,0-42.667,19.115-42.667,42.667s19.115,42.667,42.667,42.667S153.6,354.052,153.6,330.5  S134.485,287.834,110.933,287.834z M110.933,356.1c-14.08,0-25.6-11.52-25.6-25.6c0-14.08,11.52-25.6,25.6-25.6  s25.6,11.52,25.6,25.6C136.533,344.58,125.013,356.1,110.933,356.1z" data-original="#000000" class=""/><circle style="fill:#FFFFFF;" cx="110.933" cy="330.5" r="25.6" data-original="#FFFFFF" class=""/><path d="M503.467,287.834v-51.2c0-3.669-2.389-6.912-5.803-8.107l-48.213-16.043c-18.091-30.72-43.008-59.904-98.133-69.547  c-0.085-0.085-0.171-0.085-0.256-0.085c-101.717-14.08-178.091,8.875-227.157,68.181c-56.661,0.853-115.371,18.688-115.371,51.2  v25.6c-4.693,0-8.533,3.84-8.533,8.533V330.5c0,4.693,3.84,8.533,8.533,8.533h34.133c4.693,0,8.533-3.84,8.533-8.533  c0-32.939,26.795-59.733,59.733-59.733s59.733,26.795,59.733,59.733c0,4.693,3.84,8.533,8.533,8.533h153.6  c4.693,0,8.533-3.84,8.533-8.533c0-32.939,26.795-59.733,59.733-59.733S460.8,297.562,460.8,330.5c0,4.693,3.84,8.533,8.533,8.533  h34.133c4.693,0,8.533-3.84,8.533-8.533v-34.133C512,291.674,508.16,287.834,503.467,287.834z M392.96,175.706  c14.848,9.045,25.856,21.077,35.413,35.328h-35.755L392.96,175.706z M290.133,155.908c18.261-0.256,37.632,0.939,58.368,3.84  c10.325,1.792,19.371,4.352,27.477,7.595l-0.427,43.691h-85.419V155.908z M273.067,156.591v54.443H146.944  C178.603,178.436,220.331,160.346,273.067,156.591z M494.933,321.967h-17.579c-4.181-38.315-36.864-68.267-76.288-68.267  s-72.107,29.952-76.288,68.267H187.221c-4.181-38.315-36.864-68.267-76.288-68.267s-72.107,29.952-76.288,68.267H17.067V304.9  c4.693,0,8.533-3.84,8.533-8.533v-25.6h8.533c4.693,0,8.533-3.84,8.533-8.533c0-4.693-3.84-8.533-8.533-8.533h-4.437  c11.52-12.544,46.848-25.6,98.304-25.6h314.368l44.032,14.677V253.7h-8.533c-4.693,0-8.533,3.84-8.533,8.533  c0,4.693,3.84,8.533,8.533,8.533h8.533v25.6c0,4.693,3.84,8.533,8.533,8.533V321.967z" data-original="#000000" class=""/><path style="fill:#FFFFFF;" d="M128,330.5c0-12.621-9.276-23.108-21.333-25.165c-12.058,2.057-21.333,12.544-21.333,25.165  c0,12.621,9.276,23.108,21.333,25.165C118.724,353.609,128,343.121,128,330.5z" data-original="#FFFFFF" class=""/><path style="fill:#F4F4F4;" d="M110.933,304.9c-1.459,0-2.867,0.196-4.267,0.435C118.724,307.392,128,317.88,128,330.5  c0,12.621-9.276,23.108-21.333,25.165c1.399,0.239,2.807,0.435,4.267,0.435c14.08,0,25.6-11.52,25.6-25.6  C136.533,316.42,125.013,304.9,110.933,304.9z" data-original="#F4F4F4" class=""/><path style="fill:#FFFFFF;" d="M418.133,330.065c0-12.621-9.276-23.108-21.333-25.165c-12.058,2.057-21.333,12.544-21.333,25.165  c0,12.621,9.276,23.108,21.333,25.165C408.858,353.182,418.133,342.686,418.133,330.065z" data-original="#FFFFFF" class=""/><path style="fill:#F4F4F4;" d="M401.067,304.9c-1.459,0-2.867,0.196-4.267,0.435c12.058,2.057,21.333,12.544,21.333,25.165  c0,12.621-9.276,23.108-21.333,25.165c1.399,0.239,2.807,0.435,4.267,0.435c14.08,0,25.6-11.52,25.6-25.6  C426.667,316.42,415.147,304.9,401.067,304.9z" data-original="#F4F4F4" class=""/><g>
	<path style="fill:#FFFFFF;" d="M392.96,176.004l-0.213,21.922h18.475C405.786,189.82,399.77,182.532,392.96,176.004z" data-original="#FFFFFF" class=""/>
	<path style="fill:#FFFFFF;" d="M290.133,155.908v42.018h75.008l0.333-34.116c3.635,1.084,7.202,2.21,10.505,3.533   c-8.107-3.243-17.152-5.803-27.477-7.595C327.765,156.847,308.395,155.652,290.133,155.908z" data-original="#FFFFFF" class=""/>
	<path style="fill:#FFFFFF;" d="M161.331,197.927h101.325v-40.209c3.465-0.384,6.844-0.87,10.411-1.126   c-47.539,3.388-86.05,18.526-116.386,45.338C158.225,200.58,159.753,199.224,161.331,197.927z" data-original="#FFFFFF" class=""/>
</g><g>
	<path style="fill:#F4F4F4;" d="M392.747,197.927l-0.128,13.107L392.747,197.927z" data-original="#F4F4F4" class=""/>
	<polygon style="fill:#F4F4F4;" points="392.96,176.004 392.96,176.004 392.96,175.706  " data-original="#F4F4F4" class=""/>
	<path style="fill:#F4F4F4;" d="M428.373,211.034c-8.644-14.933-20.565-26.283-35.413-35.328   C407.808,184.751,418.816,196.783,428.373,211.034z" data-original="#F4F4F4" class=""/>
	<path style="fill:#F4F4F4;" d="M392.96,175.706v0.299c6.818,6.528,12.826,13.815,18.261,21.922h-18.475l-0.128,13.107h35.755   C418.816,196.783,407.808,184.751,392.96,175.706z" data-original="#F4F4F4" class=""/>
	<path style="fill:#F4F4F4;" d="M365.141,197.927h-75.008v13.107h85.419l0.427-43.691c-3.302-1.323-6.869-2.449-10.505-3.533   L365.141,197.927z" data-original="#F4F4F4" class=""/>
	<path style="fill:#F4F4F4;" d="M146.944,211.034c3.123-3.217,6.417-6.178,9.737-9.105   C153.344,204.83,150.067,207.817,146.944,211.034z" data-original="#F4F4F4" class=""/>
	<path style="fill:#F4F4F4;" d="M262.656,197.927H161.331c-1.579,1.297-3.106,2.654-4.651,4.002   c-3.319,2.935-6.622,5.897-9.737,9.105h126.123v-54.443c-3.558,0.256-6.946,0.742-10.411,1.126V197.927z" data-original="#F4F4F4" class=""/>
</g><g>
	<path style="fill:#0091EA;" d="M185.754,313.511c-0.06-0.256-0.137-0.512-0.196-0.768   C185.626,312.999,185.702,313.246,185.754,313.511z" data-original="#0091EA" class=""/>
	<path style="fill:#0091EA;" d="M326.434,312.751c-0.06,0.247-0.137,0.495-0.188,0.751   C326.306,313.246,326.374,313.007,326.434,312.751z" data-original="#0091EA" class=""/>
	<path style="fill:#0091EA;" d="M36.301,312.751c-0.06,0.247-0.137,0.495-0.188,0.751C36.173,313.246,36.241,313.007,36.301,312.751   z" data-original="#0091EA" class=""/>
	<path style="fill:#0091EA;" d="M475.887,313.511c-0.06-0.256-0.137-0.512-0.196-0.768   C475.759,312.999,475.836,313.246,475.887,313.511z" data-original="#0091EA" class=""/>
	<path style="fill:#0091EA;" d="M486.4,296.367v-25.6h-8.533c-4.693,0-8.533-3.84-8.533-8.533c0-4.693,3.84-8.533,8.533-8.533h8.533   v-10.923L442.368,228.1H128c-51.456,0-86.784,13.056-98.304,25.6h4.437c4.693,0,8.533,3.84,8.533,8.533   c0,4.693-3.84,8.533-8.533,8.533H25.6v25.6c0,4.693-3.84,8.533-8.533,8.533h21.555c10.547-29.764,38.98-51.2,72.311-51.2   s61.756,21.436,72.311,51.2h145.519c10.547-29.764,38.98-51.2,72.311-51.2s61.756,21.436,72.311,51.2h21.547   C490.24,304.9,486.4,301.06,486.4,296.367z" data-original="#0091EA" class=""/>
</g><g>
	<path style="fill:#2979FF;" d="M36.113,313.502c-0.623,2.773-1.152,5.589-1.468,8.465   C34.961,319.091,35.465,316.267,36.113,313.502z" data-original="#2979FF" class="active-path"/>
	<path style="fill:#2979FF;" d="M38.622,304.9L38.622,304.9c-0.905,2.56-1.69,5.171-2.321,7.851   C36.949,310.089,37.717,307.46,38.622,304.9z" data-original="#2979FF" class="active-path"/>
	<path style="fill:#2979FF;" d="M17.067,321.967h17.579c0.316-2.876,0.836-5.692,1.468-8.465c0.06-0.256,0.128-0.495,0.188-0.751   c0.631-2.679,1.417-5.291,2.321-7.851H17.067V321.967z" data-original="#2979FF" class="active-path"/>
	<path style="fill:#2979FF;" d="M477.355,321.967c-0.316-2.876-0.836-5.683-1.468-8.457   C476.536,316.275,477.039,319.091,477.355,321.967z" data-original="#2979FF" class="active-path"/>
	<path style="fill:#2979FF;" d="M473.378,304.9c0.905,2.56,1.673,5.18,2.321,7.842C475.059,310.072,474.283,307.46,473.378,304.9   L473.378,304.9z" data-original="#2979FF" class="active-path"/>
	<path style="fill:#2979FF;" d="M473.378,304.9c0.905,2.56,1.69,5.171,2.321,7.842c0.06,0.256,0.137,0.512,0.196,0.768   c0.623,2.773,1.152,5.581,1.468,8.457h17.57V304.9H473.378z" data-original="#2979FF" class="active-path"/>
	<path style="fill:#2979FF;" d="M328.755,304.9L328.755,304.9c-0.905,2.56-1.69,5.171-2.321,7.851   C327.083,310.089,327.851,307.46,328.755,304.9z" data-original="#2979FF" class="active-path"/>
	<path style="fill:#2979FF;" d="M326.246,313.502c-0.623,2.773-1.152,5.589-1.468,8.465   C325.094,319.091,325.598,316.267,326.246,313.502z" data-original="#2979FF" class="active-path"/>
	<path style="fill:#2979FF;" d="M187.221,321.967c-0.316-2.876-0.836-5.683-1.468-8.457   C186.402,316.275,186.906,319.091,187.221,321.967z" data-original="#2979FF" class="active-path"/>
	<path style="fill:#2979FF;" d="M183.245,304.9c0.905,2.56,1.673,5.18,2.321,7.842C184.926,310.072,184.149,307.46,183.245,304.9   L183.245,304.9z" data-original="#2979FF" class="active-path"/>
	<path style="fill:#2979FF;" d="M185.557,312.743c0.06,0.256,0.137,0.512,0.196,0.768c0.623,2.773,1.152,5.581,1.468,8.457h137.557   c0.316-2.876,0.836-5.692,1.468-8.465c0.06-0.256,0.128-0.495,0.188-0.751c0.632-2.679,1.417-5.291,2.321-7.851h-145.51   C184.149,307.46,184.926,310.072,185.557,312.743z" data-original="#2979FF" class="active-path"/>
</g></g> </svg>
