<?xml version="1.0"?>
<svg xmlns="http://www.w3.org/2000/svg" xmlns:xlink="http://www.w3.org/1999/xlink" version="1.1" id="Layer_1" x="0px" y="0px" viewBox="0 0 512 512" style="enable-background:new 0 0 512 512;" xml:space="preserve" width="512px" height="512px" class=""><g transform="matrix(-1 0 0 1 512 0)"><g>
	<path style="fill:#0091EA" d="M204.8,294.4c0,4.693,3.84,8.533,8.533,8.533h8.533V320h-21.845   c-5.888-10.155-16.811-17.067-29.355-17.067c-12.544,0-23.467,6.912-29.355,17.067H97.621   c-5.888-10.155-16.811-17.067-29.355-17.067c-18.859,0-34.133,15.275-34.133,34.133H17.067v-34.133H25.6   c4.693,0,8.533-3.84,8.533-8.533s-3.84-8.533-8.533-8.533h-8.533V268.8H76.8c4.693,0,8.533-3.84,8.533-8.533v-51.2   c0-4.693-3.84-8.533-8.533-8.533H41.643l6.827-17.067H102.4v76.8c0,4.693,3.84,8.533,8.533,8.533h110.933v17.067h-8.533   C208.64,285.867,204.8,289.707,204.8,294.4z" data-original="#3949AB" class="" data-old_color="#3949AB"/>
	<path style="fill:#0091EA" d="M477.867,294.4c0,4.693,3.84,8.533,8.533,8.533h8.533V320h-21.845   c-5.888-10.155-16.811-17.067-29.355-17.067s-23.467,6.912-29.355,17.067h-60.757c-5.888-10.155-16.811-17.067-29.355-17.067   c-12.629,0-23.552,6.912-29.44,17.152h-21.76V268.8h221.867v17.067H486.4C481.707,285.867,477.867,289.707,477.867,294.4z" data-original="#3949AB" class="" data-old_color="#3949AB"/>
</g><rect x="153.6" y="157.867" style="fill:#00796B;" width="341.333" height="93.867" data-original="#00796B" class=""/><g>
	<circle style="fill:#FFFFFF;" cx="68.267" cy="337.067" r="17.067" data-original="#FFFFFF" class=""/>
	<circle style="fill:#FFFFFF;" cx="170.667" cy="337.067" r="17.067" data-original="#FFFFFF" class=""/>
	<circle style="fill:#FFFFFF;" cx="443.733" cy="337.067" r="17.067" data-original="#FFFFFF" class=""/>
	<circle style="fill:#FFFFFF;" cx="324.267" cy="337.067" r="17.067" data-original="#FFFFFF" class=""/>
</g><path d="M503.467,140.8h-358.4c-4.693,0-8.533,3.84-8.533,8.533v102.4h-17.067v-76.8c0-4.693-3.84-8.533-8.533-8.533H42.667  c-3.499,0-6.656,2.133-7.936,5.376L0.597,257.109C0.171,258.133,0,259.157,0,260.267V345.6c0,4.693,3.84,8.533,8.533,8.533h30.379  C44.8,364.288,55.723,371.2,68.267,371.2c18.859,0,34.133-15.275,34.133-34.133h34.133c0,18.859,15.275,34.133,34.133,34.133  s34.133-15.275,34.133-34.133h25.6c4.693,0,8.533-3.84,8.533-8.533V268.8H256v59.051c-0.171,2.133,0.427,4.181,1.707,5.888  c1.536,2.133,4.096,3.413,6.827,3.413h25.6c0.085,18.773,15.36,34.048,34.133,34.048c18.859,0,34.133-15.275,34.133-34.133h51.2  c0,18.859,15.275,34.133,34.133,34.133c18.859,0,34.133-15.275,34.133-34.133h25.6c4.693,0,8.533-3.84,8.533-8.533v-179.2  C512,144.64,508.16,140.8,503.467,140.8z M34.816,217.6h33.451v34.133H21.163L34.816,217.6z M68.267,354.133  c-9.387,0-17.067-7.68-17.067-17.067C51.2,327.68,58.88,320,68.267,320s17.067,7.68,17.067,17.067  C85.333,346.453,77.653,354.133,68.267,354.133z M170.667,354.133c-9.387,0-17.067-7.68-17.067-17.067  c0-9.387,7.68-17.067,17.067-17.067s17.067,7.68,17.067,17.067C187.733,346.453,180.053,354.133,170.667,354.133z M221.867,285.867  h-8.533c-4.693,0-8.533,3.84-8.533,8.533s3.84,8.533,8.533,8.533h8.533V320h-21.845c-5.888-10.155-16.811-17.067-29.355-17.067  c-12.544,0-23.467,6.912-29.355,17.067H97.621c-5.888-10.155-16.811-17.067-29.355-17.067c-18.859,0-34.133,15.275-34.133,34.133  H17.067v-34.133H25.6c4.693,0,8.533-3.84,8.533-8.533s-3.84-8.533-8.533-8.533h-8.533V268.8H76.8c4.693,0,8.533-3.84,8.533-8.533  v-51.2c0-4.693-3.84-8.533-8.533-8.533H41.643l6.827-17.067H102.4v76.8c0,4.693,3.84,8.533,8.533,8.533h110.933V285.867z   M324.267,354.133c-9.387,0-17.067-7.68-17.067-17.067c0-9.387,7.68-17.067,17.067-17.067s17.067,7.68,17.067,17.067  C341.333,346.453,333.653,354.133,324.267,354.133z M443.733,354.133c-9.387,0-17.067-7.68-17.067-17.067  c0-9.387,7.68-17.067,17.067-17.067s17.067,7.68,17.067,17.067C460.8,346.453,453.12,354.133,443.733,354.133z M494.933,285.867  H486.4c-4.693,0-8.533,3.84-8.533,8.533s3.84,8.533,8.533,8.533h8.533V320h-21.845c-5.888-10.155-16.811-17.067-29.355-17.067  s-23.467,6.912-29.355,17.067h-60.757c-5.888-10.155-16.811-17.067-29.355-17.067c-12.629,0-23.552,6.912-29.44,17.152h-21.76V268.8  h221.867V285.867z M494.933,251.733H153.6v-93.867h341.333V251.733z" data-original="#000000" class=""/><path style="fill:#FFFFFF;" d="M76.8,337.067c0-7.902-5.47-14.541-12.8-16.452c1.374-0.367,2.782-0.614,4.267-0.614  c-9.387,0-17.067,7.68-17.067,17.067c0,9.387,7.68,17.067,17.067,17.067c-1.485,0-2.893-0.247-4.267-0.614  C71.33,351.607,76.8,344.969,76.8,337.067z" data-original="#FFFFFF" class=""/><path style="fill:#F4F4F4;" d="M68.267,320c-1.485,0-2.893,0.247-4.267,0.614c7.33,1.911,12.8,8.55,12.8,16.452  c0,7.902-5.47,14.541-12.8,16.452c1.374,0.367,2.782,0.614,4.267,0.614c9.387,0,17.067-7.68,17.067-17.067  C85.333,327.68,77.653,320,68.267,320z" data-original="#F4F4F4" class=""/><path style="fill:#FFFFFF;" d="M179.2,337.067c0-7.902-5.47-14.541-12.8-16.452c1.374-0.367,2.782-0.614,4.267-0.614  c-9.387,0-17.067,7.68-17.067,17.067c0,9.387,7.68,17.067,17.067,17.067c-1.485,0-2.893-0.247-4.267-0.614  C173.73,351.607,179.2,344.969,179.2,337.067z" data-original="#FFFFFF" class=""/><path style="fill:#F4F4F4;" d="M170.667,320c-1.485,0-2.893,0.247-4.267,0.614c7.33,1.911,12.8,8.55,12.8,16.452  c0,7.902-5.47,14.541-12.8,16.452c1.374,0.367,2.782,0.614,4.267,0.614c9.387,0,17.067-7.68,17.067-17.067  C187.733,327.68,180.053,320,170.667,320z" data-original="#F4F4F4" class=""/><path style="fill:#FFFFFF;" d="M452.267,337.067c0-7.902-5.47-14.541-12.8-16.452c1.374-0.367,2.782-0.614,4.267-0.614  c-9.387,0-17.067,7.68-17.067,17.067c0,9.387,7.68,17.067,17.067,17.067c-1.485,0-2.893-0.247-4.267-0.614  C446.797,351.607,452.267,344.969,452.267,337.067z" data-original="#FFFFFF" class=""/><path style="fill:#F4F4F4;" d="M443.733,320c-1.485,0-2.893,0.247-4.267,0.614c7.33,1.911,12.8,8.55,12.8,16.452  c0,7.902-5.47,14.541-12.8,16.452c1.374,0.367,2.782,0.614,4.267,0.614c9.387,0,17.067-7.68,17.067-17.067  C460.8,327.68,453.12,320,443.733,320z" data-original="#F4F4F4" class=""/><path style="fill:#FFFFFF;" d="M332.8,337.067c0-7.902-5.47-14.541-12.8-16.452c1.374-0.367,2.782-0.614,4.267-0.614  c-9.387,0-17.067,7.68-17.067,17.067c0,9.387,7.68,17.067,17.067,17.067c-1.485,0-2.893-0.247-4.267-0.614  C327.33,351.607,332.8,344.969,332.8,337.067z" data-original="#FFFFFF" class=""/><path style="fill:#F4F4F4;" d="M324.267,320c-1.485,0-2.893,0.247-4.267,0.614c7.33,1.911,12.8,8.55,12.8,16.452  c0,7.902-5.47,14.541-12.8,16.452c1.374,0.367,2.782,0.614,4.267,0.614c9.387,0,17.067-7.68,17.067-17.067  C341.333,327.68,333.653,320,324.267,320z" data-original="#F4F4F4" class=""/><polygon style="fill:#FFFFFF;" points="59.733,217.6 34.816,217.6 24.576,243.2 59.733,243.2 " data-original="#FFFFFF" class=""/><polygon style="fill:#F4F4F4;" points="59.733,217.6 59.733,243.2 24.576,243.2 21.163,251.733 68.267,251.733 68.267,217.6 " data-original="#F4F4F4" class=""/><rect x="482.475" y="157.867" style="fill:#004D40;" width="12.442" height="93.867" data-original="#004D40" class=""/><g>
	<path style="fill:#2979FF" d="M346.547,311.475c2.773,2.458,5.205,5.299,7.074,8.525h60.757c1.852-3.191,4.25-6.016,6.989-8.448   L346.547,311.475z" data-original="#283593" class="active-path" data-old_color="#283593"/>
	<path style="fill:#2979FF" d="M273.067,311.552v8.533h21.76c1.86-3.234,4.267-6.076,7.014-8.533H273.067z" data-original="#283593" class="active-path" data-old_color="#283593"/>
	<path style="fill:#2979FF" d="M482.492,268.8v18.142c1.186-0.631,2.475-1.075,3.908-1.075h8.533V268.8H482.492z" data-original="#283593" class="active-path" data-old_color="#283593"/>
	<path style="fill:#2979FF" d="M482.492,301.858v9.609h-16.486c2.782,2.458,5.205,5.308,7.083,8.533h21.845v-17.067H486.4   C484.966,302.933,483.678,302.49,482.492,301.858z" data-original="#283593" class="active-path" data-old_color="#283593"/>
	<path style="fill:#2979FF" d="M17.067,328.533v8.533h17.067c0-2.961,0.495-5.794,1.203-8.533H17.067z" data-original="#283593" class="active-path" data-old_color="#283593"/>
	<path style="fill:#2979FF" d="M212.267,268.8v17.28c0.367-0.043,0.691-0.213,1.067-0.213h8.533V268.8H212.267z" data-original="#283593" class="active-path" data-old_color="#283593"/>
	<path style="fill:#2979FF" d="M212.267,302.72v8.747h-19.328c2.782,2.458,5.205,5.308,7.083,8.533h21.845v-17.067h-8.533   C212.958,302.933,212.634,302.763,212.267,302.72z" data-original="#283593" class="active-path" data-old_color="#283593"/>
	<path style="fill:#2979FF" d="M90.539,311.467c2.782,2.458,5.205,5.308,7.083,8.533h43.691c1.869-3.226,4.292-6.076,7.074-8.525   L90.539,311.467z" data-original="#283593" class="active-path" data-old_color="#283593"/>
</g></g> </svg>
